Coordinates
version=1
nRows=28
nColumns=34
inDegrees=no

Units are S.I. units (second, meters, Newtons, ...)
If the header above contains a line with 'inDegrees', this indicates whether rotational values are in degrees (yes) or radians (no).

endheader
time	pelvis_tilt	pelvis_list	pelvis_rotation	pelvis_tx	pelvis_ty	pelvis_tz	hip_flexion_r	hip_adduction_r	hip_rotation_r	knee_angle_r	ankle_angle_r	subtalar_angle_r	mtp_angle_r	hip_flexion_l	hip_adduction_l	hip_rotation_l	knee_angle_l	ankle_angle_l	subtalar_angle_l	mtp_angle_l	lumbar_extension	lumbar_bending	lumbar_rotation	arm_flex_r	arm_add_r	arm_rot_r	elbow_flex_r	pro_sup_r	arm_flex_l	arm_add_l	arm_rot_l	elbow_flex_l	pro_sup_l
6.56	-0.525091	-0.0512603	-0.123093	-0.324042	0.687069	-0.622202	1.63394	-0.202031	-0.0554817	1.68466	0.641775	0.0384598	-0.117831	1.70349	-0.510222	0.0753308	1.73383	0.651704	0.129692	-0.117831	-0.348434	0.163497	0.0959281	0.0600308	-0.30216	-0.248345	1.15647	1.55298	0.00599144	-0.192267	-0.317982	1.0482	1.40049
6.57	-0.526133	-0.0508756	-0.123154	-0.324378	0.688527	-0.622525	1.63254	-0.201061	-0.0551378	1.67968	0.639122	0.0364547	-0.117831	1.70141	-0.509428	0.0729079	1.72941	0.649798	0.128196	-0.117831	-0.347527	0.164803	0.0968677	0.058876	-0.302347	-0.24852	1.15554	1.55383	0.00551309	-0.191835	-0.31729	1.04671	1.40067
6.58	-0.527154	-0.0505952	-0.123322	-0.324694	0.690044	-0.622864	1.63095	-0.200109	-0.0550047	1.67451	0.636396	0.0346695	-0.117831	1.69924	-0.508721	0.0705616	1.7249	0.647919	0.12673	-0.117831	-0.346683	0.166251	0.097837	0.0576925	-0.302547	-0.248607	1.15461	1.55463	0.0050133	-0.191287	-0.316758	1.04528	1.3999
6.59	-0.528141	-0.050446	-0.123604	-0.324986	0.691631	-0.623218	1.62912	-0.199183	-0.0551366	1.66913	0.633584	0.033107	-0.117831	1.69696	-0.508119	0.0682945	1.72028	0.646075	0.125306	-0.117831	-0.345919	0.167852	0.098843	0.0564984	-0.302754	-0.248598	1.15365	1.55539	0.00449623	-0.190607	-0.316414	1.04391	1.39809
6.6	-0.529078	-0.0504402	-0.124003	-0.325254	0.693302	-0.623584	1.62703	-0.198285	-0.0555719	1.66352	0.630673	0.0317697	-0.117831	1.69452	-0.507624	0.0661069	1.71551	0.644266	0.123894	-0.117831	-0.345247	0.169598	0.099887	0.0553167	-0.302946	-0.248489	1.15262	1.5562	0.0039698	-0.189797	-0.316251	1.04261	1.39529
6.61	-0.529949	-0.0505644	-0.124527	-0.325495	0.695071	-0.623963	1.62463	-0.197411	-0.0563145	1.65765	0.627646	0.0306467	-0.117831	1.69186	-0.507225	0.0639791	1.71055	0.642478	0.122446	-0.117831	-0.344665	0.17145	0.100965	0.0541731	-0.303084	-0.248282	1.15147	1.55715	0.00344666	-0.188875	-0.316223	1.04132	1.39177
6.62	-0.530742	-0.0507773	-0.12518	-0.325706	0.696955	-0.624351	1.62193	-0.196533	-0.0573196	1.65149	0.624485	0.0296975	-0.117831	1.68891	-0.506909	0.061861	1.70534	0.640687	0.120911	-0.117831	-0.344157	0.173345	0.102068	0.0530913	-0.30312	-0.247985	1.15013	1.5584	0.00294667	-0.187877	-0.316248	1.03999	1.38787
6.63	-0.531448	-0.0510146	-0.125967	-0.325884	0.698969	-0.624746	1.61889	-0.195603	-0.0584933	1.64502	0.621166	0.0288415	-0.117831	1.68557	-0.506665	0.0596739	1.69985	0.638854	0.119247	-0.117831	-0.343692	0.175197	0.103185	0.0520863	-0.30301	-0.247599	1.14851	1.56008	0.00249915	-0.186851	-0.316215	1.03855	1.38392
6.64	-0.532061	-0.0512009	-0.126887	-0.326028	0.701131	-0.625145	1.61552	-0.194554	-0.0597048	1.63819	0.617663	0.0279624	-0.117831	1.68178	-0.506473	0.0573238	1.69403	0.636927	0.117417	-0.117831	-0.343227	0.176917	0.104298	0.0511622	-0.302726	-0.247101	1.14658	1.56235	0.00214283	-0.185844	-0.316002	1.03689	1.38015
6.65	-0.53258	-0.0512621	-0.127932	-0.326133	0.703457	-0.625548	1.61181	-0.193313	-0.0608088	1.63094	0.61395	0.0269238	-0.117831	1.67746	-0.506301	0.0547197	1.68783	0.634845	0.115379	-0.117831	-0.342706	0.178427	0.105386	0.0503149	-0.302256	-0.246437	1.14428	1.56529	0.00192245	-0.184897	-0.315498	1.03492	1.37681
6.66	-0.533014	-0.0511383	-0.129091	-0.326198	0.705966	-0.625954	1.60773	-0.191804	-0.0616678	1.62319	0.61	0.025586	-0.117831	1.67253	-0.506099	0.0517905	1.68118	0.632542	0.113077	-0.117831	-0.342065	0.179666	0.106422	0.0495366	-0.301604	-0.245535	1.1416	1.56888	0.00188347	-0.184034	-0.314612	1.03249	1.37417
6.67	-0.533373	-0.0507916	-0.13035	-0.326219	0.708676	-0.626362	1.60327	-0.189961	-0.0621707	1.61488	0.605787	0.0238224	-0.117831	1.66694	-0.505809	0.0484937	1.674	0.62996	0.110438	-0.117831	-0.341234	0.180602	0.107384	0.0488173	-0.300781	-0.24432	1.13851	1.573	0.00206628	-0.183264	-0.313278	1.02947	1.37253
6.68	-0.533672	-0.0502087	-0.131694	-0.326191	0.711605	-0.626775	1.59838	-0.187735	-0.0622431	1.60592	0.60128	0.0215312	-0.117831	1.66064	-0.505367	0.0448145	1.66623	0.627053	0.107379	-0.117831	-0.340142	0.181232	0.108249	0.0481423	-0.299804	-0.242725	1.13504	1.57742	0.00250032	-0.182581	-0.311453	1.02572	1.37204
6.69	-0.533928	-0.0493996	-0.133101	-0.32611	0.71477	-0.627191	1.59303	-0.1851	-0.0618516	1.59622	0.596449	0.0186431	-0.117831	1.6536	-0.504712	0.0407601	1.65778	0.62379	0.103825	-0.117831	-0.338713	0.181577	0.108996	0.0474891	-0.298695	-0.240697	1.13119	1.58187	0.00319848	-0.181967	-0.30911	1.02118	1.37261
6.7	-0.534163	-0.0483953	-0.134548	-0.325971	0.718183	-0.627613	1.58717	-0.182056	-0.0610041	1.58571	0.591262	0.0151229	-0.117831	1.6458	-0.503795	0.0363565	1.64858	0.62015	0.0997221	-0.117831	-0.336872	0.181682	0.109605	0.0468269	-0.297475	-0.23821	1.127	1.58607	0.00415412	-0.181394	-0.306242	1.01577	1.37397
6.71	-0.534404	-0.0472445	-0.136004	-0.325768	0.721858	-0.628041	1.58075	-0.178629	-0.0597475	1.57433	0.58569	0.0109696	-0.117831	1.63726	-0.502581	0.0316455	1.63855	0.616119	0.0950507	-0.117831	-0.334544	0.181612	0.110055	0.0461213	-0.296166	-0.235266	1.12248	1.58983	0.00533951	-0.180832	-0.302859	1.00948	1.37578
6.72	-0.534682	-0.0460065	-0.137442	-0.325496	0.7258	-0.628476	1.57375	-0.174864	-0.0581614	1.56201	0.579713	0.00621979	-0.117831	1.628	-0.501046	0.0266797	1.62763	0.611688	0.0898236	-0.117831	-0.331655	0.181441	0.110322	0.0453426	-0.294786	-0.231893	1.11764	1.59297	0.00670636	-0.180245	-0.298989	1.00232	1.37763
6.73	-0.535028	-0.0447407	-0.138827	-0.32515	0.730015	-0.628919	1.56614	-0.170836	-0.0563466	1.5487	0.573319	0.000947393	-0.117831	1.61806	-0.49918	0.0215114	1.61578	0.606847	0.0840821	-0.117831	-0.328141	0.181244	0.110381	0.044475	-0.293345	-0.228159	1.11244	1.59548	0.00819023	-0.179599	-0.294664	0.994295	1.37918
6.74	-0.535467	-0.043499	-0.14013	-0.324726	0.734505	-0.629371	1.55789	-0.166635	-0.0544158	1.53437	0.566508	-0.00474033	-0.117831	1.6075	-0.496983	0.0161826	1.60295	0.601589	0.077894	-0.117831	-0.323957	0.181087	0.110205	0.0435216	-0.291844	-0.22416	1.10682	1.59749	0.0097167	-0.178869	-0.289911	0.985455	1.38024
6.75	-0.53601	-0.0423253	-0.141324	-0.324221	0.739268	-0.629834	1.54899	-0.162366	-0.0524875	1.519	0.559292	-0.0107125	-0.117831	1.59634	-0.494476	0.0107208	1.58914	0.595911	0.0713574	-0.117831	-0.319079	0.181023	0.109768	0.0425028	-0.290279	-0.220018	1.10062	1.59934	0.0112084	-0.178043	-0.284737	0.975842	1.38072
6.76	-0.536652	-0.0412578	-0.142393	-0.323632	0.744302	-0.630308	1.53941	-0.158128	-0.0506836	1.50259	0.551694	-0.0168272	-0.117831	1.58462	-0.491701	0.0051416	1.57433	0.589819	0.0645982	-0.117831	-0.313515	0.181093	0.109061	0.0414485	-0.288648	-0.215867	1.09369	1.60152	0.0125935	-0.177121	-0.279129	0.96552	1.38067
6.77	-0.537372	-0.0403314	-0.143332	-0.322955	0.7496	-0.630792	1.52915	-0.154005	-0.0491237	1.48515	0.543751	-0.0229412	-0.117831	1.57236	-0.488723	-0.000544506	1.55854	0.583329	0.0577558	-0.117831	-0.307297	0.181324	0.108087	0.0403886	-0.286953	-0.211831	1.08586	1.60456	0.0138144	-0.176118	-0.273048	0.954571	1.38012
6.78	-0.538133	-0.0395763	-0.144149	-0.322188	0.755155	-0.631285	1.51816	-0.150066	-0.0479158	1.4667	0.535503	-0.0289163	-0.117831	1.55956	-0.485613	-0.00632852	1.5418	0.576472	0.0509618	-0.117831	-0.300482	0.181732	0.106869	0.0393435	-0.285208	-0.208013	1.07697	1.60892	0.0148341	-0.175061	-0.266437	0.943092	1.37911
6.79	-0.538893	-0.0390134	-0.144855	-0.321329	0.760957	-0.631783	1.50644	-0.14636	-0.047144	1.4473	0.526991	-0.0346275	-0.117831	1.54621	-0.482435	-0.0122048	1.52414	0.569286	0.0443234	-0.117831	-0.293135	0.182315	0.105433	0.0383183	-0.283444	-0.204478	1.06695	1.61483	0.0156358	-0.173982	-0.25923	0.93118	1.37766
6.8	-0.539607	-0.0386511	-0.145462	-0.320378	0.766994	-0.632284	1.49397	-0.14292	-0.0468585	1.42698	0.518252	-0.0399757	-0.117831	1.5323	-0.479244	-0.0181757	1.50561	0.561815	0.0379199	-0.117831	-0.285321	0.183062	0.103808	0.0373026	-0.281701	-0.201252	1.05581	1.62221	0.0162182	-0.172909	-0.25137	0.918919	1.37578
6.81	-0.540235	-0.0384839	-0.145976	-0.319333	0.773248	-0.632787	1.48076	-0.139765	-0.0470704	1.4058	0.50931	-0.0449022	-0.117831	1.51783	-0.476073	-0.0242548	1.48626	0.554101	0.0318082	-0.117831	-0.277099	0.183945	0.102014	0.036275	-0.280027	-0.198312	1.04364	1.63062	0.0165906	-0.17186	-0.242829	0.906379	1.37351
6.82	-0.540734	-0.0384955	-0.146395	-0.318195	0.779703	-0.63329	1.46681	-0.136898	-0.0477512	1.38381	0.500181	-0.0494009	-0.117831	1.50278	-0.472939	-0.0304634	1.46614	0.546182	0.0260301	-0.117831	-0.268525	0.18493	0.100058	0.035211	-0.278475	-0.195584	1.03062	1.63929	0.0167682	-0.17084	-0.233626	0.893616	1.37096
6.83	-0.541063	-0.0386643	-0.146709	-0.316965	0.786342	-0.633791	1.45213	-0.134299	-0.0488362	1.36108	0.490866	-0.0535238	-0.117831	1.48714	-0.469838	-0.0368215	1.44529	0.538084	0.0206113	-0.117831	-0.259651	0.185974	0.0979427	0.0340879	-0.277092	-0.19294	1.01694	1.64732	0.0167676	-0.169837	-0.223839	0.880684	1.36827
